<?xml version="1.0" encoding="utf-8"?>
<!-- Generator: Adobe Illustrator 24.1.2, SVG Export Plug-In . SVG Version: 6.00 Build 0)  -->
<svg version="1.1" id="Слой_1" xmlns:xodm="http://www.corel.com/coreldraw/odm/2003"
	 xmlns="http://www.w3.org/2000/svg" xmlns:xlink="http://www.w3.org/1999/xlink" x="0px" y="0px" viewBox="0 0 687.66 129.08"
	 style="enable-background:new 0 0 687.66 129.08;" xml:space="preserve">
<style type="text/css">
	.st0{fill-rule:evenodd;clip-rule:evenodd;}
</style>
<g id="Слой_x0020_1">
	<g id="_2141212204912">
		<path class="st0" d="M459.29,89.49h17.18v-49.9h-17.18V89.49z M364.4,39.59h-25.05h0l-7.85,12.63l-12.91,18.89l-12.91-18.89
			l-7.85-12.63l0,0h-25.05l0,0v49.9l0,0h0h17.18l0,0h0h0V56.84l21.26,32.44l0,0h14.73l0,0l21.26-32.44v32.65h0h0h0h17.18h0
			L364.4,39.59L364.4,39.59L364.4,39.59z M451.91,63.71c0-3.63-0.55-6.71-1.48-9.35c-4.24-13.81-16.57-15.44-23.11-15.44
			c-4.76,0-11.11,0-15.46,0c0,0-0.01,0-0.01,0c-4.36,0-10.7,0-15.46,0c-6.54,0-18.87,1.63-23.11,15.44
			c-0.93,2.64-1.48,5.72-1.48,9.35c0,0.28,0.01,0.55,0.02,0.83c0,0.28-0.02,0.54-0.02,0.82c0,3.63,0.55,6.71,1.48,9.35
			c4.24,13.81,16.57,15.44,23.11,15.44c4.76,0,11.11,0,15.46,0c0,0,0.01,0,0.01,0c4.36,0,10.7,0,15.46,0
			c6.54,0,18.87-1.63,23.11-15.44c0.93-2.64,1.48-5.72,1.48-9.35c0-0.28-0.01-0.55-0.02-0.82
			C451.89,64.26,451.91,63.99,451.91,63.71z M432.63,72.97L432.63,72.97c-1.43,1.75-3.23,2.81-4.86,3.2
			c-0.3,0.05-0.6,0.13-0.89,0.13c-2.46,0-7.78,0.17-12.13,0.24c-0.02,0-0.03,0.01-0.05,0.01c-0.64,0.03-1.64,0.03-2.84,0.03
			c0,0,0,0-0.01,0c0,0,0,0-0.01,0c-1.19,0.01-2.2,0-2.84-0.03c-0.02,0-0.04-0.01-0.05-0.01c-4.35-0.08-9.67-0.24-12.13-0.24
			c-0.29,0-0.59-0.08-0.89-0.13c-1.64-0.39-3.43-1.45-4.87-3.2c-1.58-2.05-2.68-4.93-2.7-8.43c0.01-3.5,1.12-6.39,2.7-8.43
			c1.44-1.76,3.23-2.81,4.87-3.2c0.3-0.05,0.6-0.13,0.89-0.13c2.46,0,7.78-0.17,12.13-0.24c0.02,0,0.03-0.01,0.05-0.01
			c0.64-0.03,1.64-0.04,2.84-0.03c0,0,0,0,0.01,0c0,0,0,0,0.01,0c1.19-0.01,2.2,0,2.84,0.03c0.02,0,0.04,0.01,0.05,0.01
			c4.35,0.08,9.67,0.24,12.13,0.24c0.29,0,0.6,0.08,0.89,0.13c1.64,0.39,3.43,1.45,4.86,3.2c1.58,2.04,2.69,4.93,2.7,8.43
			C435.31,68.03,434.21,70.92,432.63,72.97z M263.54,63.71c0-3.63-0.55-6.71-1.48-9.35c-4.24-13.81-16.57-15.44-23.11-15.44
			c-4.76,0-11.11,0-15.47,0c0,0-0.01,0-0.01,0c-4.36,0-10.7,0-15.46,0c-6.54,0-18.87,1.63-23.11,15.44
			c-0.93,2.64-1.48,5.72-1.48,9.35c0,0.28,0.01,0.55,0.02,0.83c0,0.28-0.02,0.54-0.02,0.82c0,3.63,0.55,6.71,1.48,9.35
			c4.24,13.81,16.57,15.44,23.11,15.44c4.76,0,11.1,0,15.46,0c0,0,0.01,0,0.01,0c4.36,0,10.71,0,15.47,0
			c6.54,0,18.87-1.63,23.11-15.44c0.93-2.64,1.48-5.72,1.48-9.35c0-0.28-0.01-0.55-0.02-0.82
			C263.52,64.26,263.54,63.99,263.54,63.71z M244.26,72.97L244.26,72.97c-1.43,1.75-3.23,2.81-4.86,3.2
			c-0.3,0.05-0.6,0.13-0.89,0.13c-2.46,0-7.78,0.17-12.13,0.24c-0.02,0-0.03,0.01-0.05,0.01c-0.64,0.03-1.64,0.03-2.84,0.03
			c0,0,0,0-0.01,0c0,0,0,0-0.01,0c-1.19,0.01-2.2,0-2.84-0.03c-0.02,0-0.04-0.01-0.05-0.01c-4.35-0.08-9.67-0.24-12.13-0.24
			c-0.29,0-0.59-0.08-0.89-0.13c-1.64-0.39-3.43-1.45-4.86-3.2c-1.58-2.05-2.69-4.93-2.7-8.43c0.01-3.5,1.12-6.39,2.7-8.43
			c1.43-1.76,3.23-2.81,4.86-3.2c0.3-0.05,0.6-0.13,0.89-0.13c2.46,0,7.78-0.17,12.13-0.24c0.02,0,0.03-0.01,0.05-0.01
			c0.64-0.03,1.64-0.04,2.84-0.03c0,0,0,0,0.01,0c0,0,0,0,0.01,0c1.19-0.01,2.2,0,2.84,0.03c0.02,0,0.04,0.01,0.05,0.01
			c4.35,0.08,9.67,0.24,12.13,0.24c0.29,0,0.59,0.08,0.89,0.13c1.64,0.39,3.43,1.45,4.86,3.2c1.58,2.04,2.69,4.93,2.7,8.43
			C246.95,68.03,245.84,70.92,244.26,72.97z M557.77,39.58h-27.45l-26.72,16.66V39.6h-17.18v49.9h17.18V69.4l29.66,19.6h27.95
			l-39.09-26.84L557.77,39.58L557.77,39.58z M662.54,83.97c-0.24-3.35,1.38-13.34-8.73-18.36c0,0,7.24-1.02,7.24-13.4
			c0-12.38-13.28-12.62-16.45-12.62c-2.79,0-29.76,0-36.15,0v-0.01h-17.18v49.9h17.18V74.11h30.82c0,0,5.26-0.84,6.1,4.43
			c0.84,5.26,0.6,9.33,2.93,10.88h17.29C665.59,89.42,662.78,87.32,662.54,83.97L662.54,83.97z M639.63,61.73L639.63,61.73
			c-2.54,0-23.52,0-31.18,0v-8.97c6.55,0.01,29.16,0.05,31,0.05c2.15,0,4.9,0.9,4.9,4.01C644.36,59.93,642.74,61.73,639.63,61.73z
			 M670.49,39.59v49.9h17.18v-49.9C687.66,39.59,670.49,39.59,670.49,39.59z M564.14,89.49h17.18v-49.9h-17.18V89.49z"/>
		<path class="st0" d="M124.03,77.56c-4.22-10.21-6.63-16.49-11.04-26.82c-4.3,10.06-6.8,16.08-11.09,26.82
			c-3.31,8.29,2.32,16.94,11.09,16.94C121.51,94.5,127.55,86.08,124.03,77.56z M112.99,108.77L112.99,108.77
			c-18.53,0-32.19-19.21-23.8-37.41c8.76-19.01,14.19-30.88,23.8-51.05c9.62,20.17,15.05,32.04,23.8,51.05
			C145.18,89.56,131.52,108.77,112.99,108.77z"/>
		<path class="st0" d="M53.74,108.77c-18.53,0-32.19-19.21-23.81-37.41c8.76-19.01,14.19-30.88,23.81-51.05
			c9.62,20.17,15.05,32.04,23.8,51.05C85.93,89.56,72.27,108.77,53.74,108.77z"/>
		<path class="st0" d="M38.34,129.08h90.06c21.14,0,38.34-17.2,38.34-38.34V38.34C166.73,17.2,149.53,0,128.39,0H38.34
			C17.2,0,0,17.2,0,38.34v52.41C0,111.88,17.2,129.08,38.34,129.08z M128.39,8.07L128.39,8.07c16.69,0,30.27,13.58,30.27,30.27
			v52.41c0,16.69-13.58,30.27-30.27,30.27H38.34c-16.69,0-30.27-13.58-30.27-30.27V38.34c0-16.69,13.58-30.27,30.27-30.27H128.39
			L128.39,8.07z"/>
	</g>
</g>
</svg>