<?xml version="1.0" encoding="UTF-8"?>
<svg xmlns="http://www.w3.org/2000/svg" xmlns:xlink="http://www.w3.org/1999/xlink" xml:space="preserve" width="35px" version="1.1" style="shape-rendering:geometricPrecision; text-rendering:geometricPrecision; image-rendering:optimizeQuality; fill-rule:evenodd; clip-rule:evenodd" viewBox="0 0 1362.6 869.5">
                       <g id="Слой_x0020_1">
                        <metadata id="CorelCorpID_0Corel-Layer"></metadata>
                        <g id="_2286953939536">
                         <g id="_2098554181968">
                          <path class="fil0" d="M1273.83 5.53l-1194.07 0c-46.34,0 -84.26,37.92 -84.26,84.26l0 700.96c0,46.34 37.92,84.26 84.26,84.26l1194.07 0c46.35,0 84.27,-37.92 84.27,-84.26l0 -700.96c0,-46.34 -37.92,-84.26 -84.27,-84.26zm-261.19 136.45l191.12 0c18.25,0 33.17,14.93 33.17,33.17l0 548.06c0,18.25 -14.92,33.18 -33.17,33.18l-191.12 0c-18.25,0 -33.17,-14.93 -33.17,-33.18l0 -548.06c0,-18.24 14.92,-33.17 33.17,-33.17zm-855.94 -0.11l691.23 0c25.66,0 46.65,20.99 46.65,46.64l0 520.82c0,25.65 -21,46.64 -46.65,46.64l-691.23 0c-25.65,0 -46.65,-20.99 -46.65,-46.64l0 -520.82c0,-25.65 20.99,-46.64 46.65,-46.64z"></path>
                          <path class="fil0" d="M514.24 234.21c44.32,0 80.24,35.92 80.24,80.24 0,44.31 -35.92,80.23 -80.24,80.23 -44.31,0 -80.23,-35.92 -80.23,-80.23 0,-44.32 35.92,-80.24 80.23,-80.24z"></path>
                          <path class="fil0" d="M1109.28 252.77c34.06,0 61.68,27.61 61.68,61.68 0,34.06 -27.62,61.68 -61.68,61.68 -34.07,0 -61.68,-27.62 -61.68,-61.68 0,-34.07 27.61,-61.68 61.68,-61.68z"></path>
                         </g>
                        </g>
                       </g>
                      </svg>
