<?xml version="1.0" encoding="UTF-8"?>
<svg xmlns="http://www.w3.org/2000/svg" xmlns:xlink="http://www.w3.org/1999/xlink" xml:space="preserve" width="35px" version="1.1" style="shape-rendering:geometricPrecision; text-rendering:geometricPrecision; image-rendering:optimizeQuality; fill-rule:evenodd; clip-rule:evenodd" viewBox="0 0 1704.6 881.1">
                           <g id="Слой_x0020_1">
                            <metadata id="CorelCorpID_0Corel-Layer"></metadata>
                            <g id="_2252370315280">
                             <g id="_2099696692336">
                              <path class="fil0" d="M500.45 877.03c-160.6,-158.47 -321.2,-316.94 -481.79,-475.41 -27.2,-29.84 -29.6,-79.68 -1.23,-102.48 492.29,-395.73 1158.52,-377.08 1657.2,-9.2 34.08,26.2 34.64,70.9 9.56,98.91 -114.05,117.86 -368.78,404.13 -486.57,486.58 -18.09,11.79 -23.37,13.83 -50.07,13.83 -203.15,0 -390.6,0 -593.74,0 -23.22,0 -34.28,1.07 -53.36,-12.23zm551.88 -699.28l48.22 -40.4c16.4,-13.75 35.65,-9.75 55.31,-5.25 171.25,49.93 286.35,112.49 412.19,189.66 14.35,8.79 16.97,37.14 5.35,49.35l-318.36 334.76c-11.62,12.21 -42.01,-0.98 -47.81,-16.85l-168.42 -460.75c-5.81,-15.88 0.56,-39.66 13.52,-50.52zm-290.12 32.43l179.31 0c16.91,0 34.03,14.8 39.59,30.74l173.14 496.85c5.55,15.91 -10.05,41.72 -26.91,41.72l-548.41 0c-16.87,0 -31.95,-27.18 -26.54,-43.2l167.51 -495.37c5.41,-16.02 25.4,-30.74 42.31,-30.74zm-294.55 447.47l-33.17 0c-13.96,0 -25.41,11.43 -25.41,25.41 0,13.97 11.43,25.4 25.41,25.4l33.17 0c13.97,0 25.4,-11.43 25.4,-25.41 0,-13.97 -11.47,-25.4 -25.4,-25.4zm38.24 -114.3l-155.33 0c-13.96,0 -25.4,11.43 -25.4,25.4 0,13.97 11.43,25.4 25.4,25.4l155.33 0c13.97,0 25.4,-11.43 25.4,-25.4 0,-13.97 -11.46,-25.4 -25.4,-25.4zm41.64 -107.94l-315.92 0c-11.56,0 -21.03,11.43 -21.03,25.4 0,13.97 9.46,25.4 21.03,25.4l315.92 0c11.57,0 21.04,-11.43 21.04,-25.4 0,-13.97 -9.48,-25.4 -21.04,-25.4zm33.73 -114.31l-426.5 0c-13.97,0 -25.4,11.43 -25.4,25.41 0,13.97 11.43,25.4 25.4,25.4l426.5 0c13.97,0 25.4,-11.43 25.4,-25.41 0,-13.97 -11.44,-25.4 -25.4,-25.4zm37.41 -112.49l-357.45 0c-13.97,0 -25.4,11.43 -25.4,25.4 0,13.97 11.43,25.4 25.4,25.4l357.45 0c13.97,0 25.4,-11.43 25.4,-25.4 0,-13.97 -11.43,-25.4 -25.4,-25.4z"></path>
                              <path class="fil0" d="M853.72 316.67c44.31,0 80.23,35.92 80.23,80.23 0,44.32 -35.92,80.24 -80.23,80.24 -44.32,0 -80.24,-35.92 -80.24,-80.24 0,-44.31 35.92,-80.23 80.24,-80.23z"></path>
                              <path class="fil0" d="M1246.73 242.35c44.31,0 80.24,35.92 80.24,80.24 0,44.31 -35.93,80.23 -80.24,80.23 -44.31,0 -80.23,-35.92 -80.23,-80.23 0,-44.32 35.92,-80.24 80.23,-80.24z"></path>
                             </g>
                            </g>
                           </g>
                          </svg>
