<?xml version="1.0" encoding="UTF-8"?>
<svg xmlns="http://www.w3.org/2000/svg" xmlns:xlink="http://www.w3.org/1999/xlink" xml:space="preserve" width="35px" version="1.1" style="shape-rendering:geometricPrecision; text-rendering:geometricPrecision; image-rendering:optimizeQuality; fill-rule:evenodd; clip-rule:evenodd" viewBox="0 0 1055 869.68">
                          <g id="Слой_x0020_1">
                          <metadata id="CorelCorpID_0Corel-Layer"></metadata>
                          <g id="_2286811359072">
                           <g id="_2099683100352">
                            <path class="fil0" d="M964.85 5.53l-886.5 0c-46.34,0 -84.26,37.93 -84.26,84.26l0 700.95c0,46.34 37.91,84.26 84.26,84.26l886.5 0c46.34,0 84.26,-37.92 84.26,-84.26l0 -700.95c0,-46.34 -37.93,-84.26 -84.26,-84.26zm-809.57 136.35l727.45 0c25.65,0 46.64,20.99 46.64,46.64l0 520.8c0,25.65 -21,46.64 -46.64,46.64l-727.45 0c-25.65,0 -46.64,-20.99 -46.64,-46.64l0 -520.8c0,-25.66 20.99,-46.64 46.64,-46.64z"></path>
                            <path class="fil0" d="M525.24 234.21c44.31,0 80.23,35.92 80.23,80.24 0,44.31 -35.92,80.23 -80.23,80.23 -44.31,0 -80.23,-35.92 -80.23,-80.23 0,-44.32 35.92,-80.24 80.23,-80.24z"></path>
                           </g>
                          </g>
                          </g>
                        </svg>
