<?xml version="1.0" encoding="UTF-8"?>
<svg xmlns="http://www.w3.org/2000/svg" xmlns:xlink="http://www.w3.org/1999/xlink" xml:space="preserve" width="35px" version="1.1" style="shape-rendering:geometricPrecision; text-rendering:geometricPrecision; image-rendering:optimizeQuality; fill-rule:evenodd; clip-rule:evenodd" viewBox="0 0 1362.6 869.5">

                         <g id="Слой_x0020_1">
                          <metadata id="CorelCorpID_0Corel-Layer"></metadata>
                          <g id="_2286815364368">
                           <g id="_2099701317424">
                            <path class="fil0" d="M1273.83 5.53l-1194.06 0c-46.35,0 -84.27,37.92 -84.27,84.26l0 700.96c0,46.34 37.92,84.26 84.27,84.26l1194.06 0c46.35,0 84.27,-37.92 84.27,-84.26l0 -700.96c0,-46.34 -37.92,-84.26 -84.27,-84.26zm-1117.13 136.34l538.45 0c25.65,0 46.64,20.99 46.64,46.64l0 520.82c0,25.65 -20.99,46.64 -46.64,46.64l-538.45 0c-25.65,0 -46.64,-20.99 -46.64,-46.64l0 -520.82c0,-25.65 20.99,-46.64 46.64,-46.64zm721.55 561.73l357.44 0c13.97,0 25.4,11.43 25.4,25.4l0 0.01c0,13.97 -11.43,25.4 -25.4,25.4l-357.44 0c-13.97,0 -25.41,-11.43 -25.41,-25.4l0 -0.01c0,-13.97 11.44,-25.4 25.41,-25.4zm0 -114.3l357.44 0c13.97,0 25.4,11.43 25.4,25.4l0 0c0,13.97 -11.43,25.4 -25.4,25.4l-357.44 0c-13.97,0 -25.41,-11.43 -25.41,-25.4l0 0c0,-13.97 11.44,-25.4 25.41,-25.4zm0 -107.94l357.44 0c13.97,0 25.4,11.43 25.4,25.4l0 0c0,13.97 -11.43,25.4 -25.4,25.4l-357.44 0c-13.97,0 -25.41,-11.43 -25.41,-25.4l0 0c0,-13.97 11.44,-25.4 25.41,-25.4zm0 -114.31l357.44 0c13.97,0 25.4,11.43 25.4,25.4l0 0.01c0,13.97 -11.43,25.4 -25.4,25.4l-357.44 0c-13.97,0 -25.41,-11.43 -25.41,-25.4l0 -0.01c0,-13.97 11.44,-25.4 25.41,-25.4zm0 -112.49l357.44 0c13.97,0 25.4,11.43 25.4,25.4l0 0c0,13.97 -11.43,25.4 -25.4,25.4l-357.44 0c-13.97,0 -25.41,-11.43 -25.41,-25.4l0 0c0,-13.97 11.44,-25.4 25.41,-25.4zm0 -114.31l357.44 0c13.97,0 25.4,11.43 25.4,25.4l0 0c0,13.97 -11.43,25.4 -25.4,25.4l-357.44 0c-13.97,0 -25.41,-11.43 -25.41,-25.4l0 0c0,-13.97 11.44,-25.4 25.41,-25.4z"></path>
                            <path class="fil0" d="M419.12 234.21c44.32,0 80.24,35.92 80.24,80.24 0,44.31 -35.92,80.23 -80.24,80.23 -44.31,0 -80.23,-35.92 -80.23,-80.23 0,-44.32 35.92,-80.24 80.23,-80.24z"></path>
                           </g>
                          </g>
                         </g>
                        </svg>
