<?xml version="1.0" encoding="UTF-8"?>
<svg xmlns="http://www.w3.org/2000/svg" xmlns:xlink="http://www.w3.org/1999/xlink" xml:space="preserve" width="35px" version="1.1" style="shape-rendering:geometricPrecision; text-rendering:geometricPrecision; image-rendering:optimizeQuality; fill-rule:evenodd; clip-rule:evenodd" viewBox="0 0 1351.7 869.68">
                          <g id="Слой_x0020_1">
                          <metadata id="CorelCorpID_0Corel-Layer"></metadata>
                          <g id="_2286820122544">
                           <g id="_2099439387680">
                            <path class="fil0" d="M433.39 5.39c2.39,0 486.77,0.02 489.14,0.06 236.86,3.82 427.69,197.04 427.69,434.81 0,238.94 -192.71,432.89 -431.18,434.85 -1.22,0.01 -484.43,0.02 -485.65,0.02 -240.17,0 -434.87,-194.7 -434.87,-434.87 0,-240.17 194.7,-434.87 434.87,-434.87zm717.33 633.99l-274.96 0c-10.75,0 -19.54,11.43 -19.54,25.4 0,13.97 8.79,25.4 19.54,25.4l274.96 0c10.75,0 19.54,-11.43 19.54,-25.4 0,-13.97 -8.79,-25.4 -19.54,-25.4zm59.43 -114.31l-330.45 0c-12.92,0 -23.48,11.43 -23.48,25.4 0,13.97 10.56,25.41 23.48,25.41l330.45 0c12.92,0 23.49,-11.44 23.49,-25.41 0,-13.97 -10.57,-25.4 -23.49,-25.4zm18.09 -107.94l-347.34 0c-13.58,0 -24.68,11.43 -24.68,25.41 0,13.97 11.1,25.4 24.68,25.4l347.34 0c13.58,0 24.68,-11.43 24.68,-25.41 0,-13.97 -11.1,-25.4 -24.68,-25.4zm-18.09 -114.3l-330.45 0c-12.92,0 -23.48,11.43 -23.48,25.4 0,13.97 10.56,25.4 23.48,25.4l330.45 0c12.92,0 23.49,-11.43 23.49,-25.4 0,-13.97 -10.57,-25.4 -23.49,-25.4zm-59.43 -112.5l-274.96 0c-10.75,0 -19.54,11.43 -19.54,25.4 0,13.97 8.79,25.41 19.54,25.41l274.96 0c10.75,0 19.54,-11.44 19.54,-25.41 0,-13.97 -8.79,-25.4 -19.54,-25.4zm-717.33 -68.34c63.42,0 122.57,18.3 172.46,49.9 90.31,57.2 150.25,158.01 150.25,272.81 0,178.24 -144.48,322.72 -322.71,322.72 -178.24,0 -322.72,-144.48 -322.72,-322.72 0,-114.95 60.1,-215.86 150.6,-273.03 49.81,-31.47 108.84,-49.68 172.12,-49.68z"></path>
                            <path class="fil0" d="M581.8 364.77c44.31,0 80.23,35.92 80.23,80.23 0,44.31 -35.92,80.24 -80.23,80.24 -44.31,0 -80.23,-35.93 -80.23,-80.24 0,-44.31 35.92,-80.23 80.23,-80.23z"></path>
                           </g>
                          </g>
                          </g>
                          </svg>
