<?xml version="1.0" encoding="UTF-8"?>
<svg xmlns="http://www.w3.org/2000/svg" xmlns:xlink="http://www.w3.org/1999/xlink" xml:space="preserve" width="35px" version="1.1" style="shape-rendering:geometricPrecision; text-rendering:geometricPrecision; image-rendering:optimizeQuality; fill-rule:evenodd; clip-rule:evenodd" viewBox="0 0 869.68 869.68">
                         <g id="Слой_x0020_1">
                          <metadata id="CorelCorpID_0Corel-Layer"></metadata>
                          <g id="_2286811359744">
                           <g id="_2098579651152">
                            <path class="fil0" d="M429.41 5.4c240.17,0 434.87,194.69 434.87,434.85 0,240.17 -194.7,434.87 -434.87,434.87 -240.16,0 -434.86,-194.7 -434.86,-434.87 0,-240.16 194.7,-434.85 434.86,-434.85zm171.97 170.44c90.04,57.04 149.82,157.56 149.82,272.02 0,177.72 -144.07,321.79 -321.79,321.79 -177.71,0 -321.78,-144.07 -321.78,-321.79 0,-114.61 59.94,-215.24 150.17,-272.24l343.58 0.22z"></path>
                            <path class="fil0" d="M425.02 230.22c44.3,0 80.22,35.92 80.22,80.24 0,44.31 -35.92,80.23 -80.22,80.23 -44.31,0 -80.24,-35.92 -80.24,-80.23 0,-44.32 35.93,-80.24 80.24,-80.24z"></path>
                           </g>
                          </g>
                         </g>
                        </svg>
