<?xml version="1.0" encoding="UTF-8"?>
<svg xmlns="http://www.w3.org/2000/svg" xmlns:xlink="http://www.w3.org/1999/xlink" xml:space="preserve" width="35px" version="1.1" style="shape-rendering:geometricPrecision; text-rendering:geometricPrecision; image-rendering:optimizeQuality; fill-rule:evenodd; clip-rule:evenodd" viewBox="0 0 1362.6 869.5">
                         <g id="Слой_x0020_1">
                          <metadata id="CorelCorpID_0Corel-Layer"></metadata>
                          <g id="_2286954039008">
                           <g id="_2099489902944">
                            <path class="fil0" d="M1273.83 5.53l-1194.06 0c-46.35,0 -84.26,37.92 -84.26,84.26l0 700.95c0,46.35 37.91,84.26 84.26,84.26l1194.06 0c46.34,0 84.26,-37.91 84.26,-84.26l0 -700.95c0,-46.34 -37.92,-84.26 -84.26,-84.26zm-522.7 136.45l452.62 0c18.25,0 33.18,14.93 33.18,33.18l0 548.05c0,18.24 -14.93,33.17 -33.18,33.17l-452.62 0c-18.24,0 -33.17,-14.93 -33.17,-33.17l0 -548.05c0,-18.25 14.92,-33.18 33.17,-33.18zm-594.43 -0.1l432.43 0c25.65,0 46.64,21 46.64,46.64l0 520.8c0,25.64 -21.01,46.65 -46.64,46.65l-432.43 0c-25.63,0 -46.64,-20.99 -46.64,-46.65l0 -520.8c0,-25.66 20.99,-46.64 46.64,-46.64z"></path>
                            <path class="fil0" d="M369.44 234.22c44.31,0 80.23,35.92 80.23,80.23 0,44.31 -35.92,80.23 -80.23,80.23 -44.31,0 -80.23,-35.92 -80.23,-80.23 0,-44.31 35.92,-80.23 80.23,-80.23z"></path>
                            <path class="fil0" d="M976.34 234.22c44.31,0 80.23,35.92 80.23,80.23 0,44.31 -35.92,80.23 -80.23,80.23 -44.31,0 -80.23,-35.92 -80.23,-80.23 0,-44.31 35.92,-80.23 80.23,-80.23z"></path>
                           </g>
                          </g>
                         </g>
                        </svg>
