<?xml version="1.0" encoding="UTF-8"?>
<!DOCTYPE svg PUBLIC "-//W3C//DTD SVG 1.1//EN" "http://www.w3.org/Graphics/SVG/1.1/DTD/svg11.dtd">
<!-- Creator: CorelDRAW 2020 (64-Bit) -->
<svg xmlns="http://www.w3.org/2000/svg" xml:space="preserve" width="29mm" height="35mm" version="1.1" style="shape-rendering:geometricPrecision; text-rendering:geometricPrecision; image-rendering:optimizeQuality; fill-rule:evenodd; clip-rule:evenodd"
viewBox="0 0 2900 3500"
 xmlns:xlink="http://www.w3.org/1999/xlink"
 xmlns:xodm="http://www.corel.com/coreldraw/odm/2003">
 <defs>
  <style type="text/css">
   <![CDATA[
    .fil0 {fill:black}
   ]]>
  </style>
 </defs>
 <g id="Слой_x0020_1">
  <metadata id="CorelCorpID_0Corel-Layer"/>
  <g id="_2501043893600">
   <g id="_2156756020560">
    <path class="fil0" d="M536.69 993.67l0 2056.7c0,230.11 158.65,402.23 341.52,402.23l1669.64 0c99.36,0 205.86,-71.35 251.65,-127.81 59.46,-73.33 89.87,-158.13 89.87,-289.59l0 -2033.94c0,-285.58 -158.74,-424.99 -440.18,-424.99l-1472.32 0c-274.83,0 -440.18,135.74 -440.18,417.4z"/>
    <path class="fil0" d="M5.43 485.19l0 2033.92c0,167.69 166.25,178.94 229.22,92.62 36.86,-50.51 21.23,-316.93 21.23,-388.59l0 -1662.06c0,-259.88 11.17,-265.62 288.39,-265.62l1381.28 0.02c83.55,0.33 166.95,-2.06 166.95,-129.04 0,-64.8 -49.05,-113.84 -113.85,-113.84l-1616.51 0c-100.83,0 -216.62,72.95 -262.54,132.11 -64.56,83.15 -94.17,157.03 -94.17,300.48z"/>
   </g>
  </g>
 </g>
</svg>
