<?xml version="1.0" encoding="UTF-8"?>
<!DOCTYPE svg PUBLIC "-//W3C//DTD SVG 1.1//EN" "http://www.w3.org/Graphics/SVG/1.1/DTD/svg11.dtd">
<!-- Creator: CorelDRAW 2020 (64-Bit) -->
<svg xmlns="http://www.w3.org/2000/svg" xml:space="preserve" width="27mm" height="34mm" version="1.1" style="shape-rendering:geometricPrecision; text-rendering:geometricPrecision; image-rendering:optimizeQuality; fill-rule:evenodd; clip-rule:evenodd"
viewBox="0 0 2700 3400"
 xmlns:xlink="http://www.w3.org/1999/xlink"
 xmlns:xodm="http://www.corel.com/coreldraw/odm/2003">
 <defs>
  <style type="text/css">
   <![CDATA[
    .fil0 {fill:black}
   ]]>
  </style>
 </defs>
 <g id="Слой_x0020_1">
  <metadata id="CorelCorpID_0Corel-Layer"/>
  <g id="_2465453939712">
   <g id="_2156386298896">
    <path class="fil0" d="M1810.17 1735c-3.23,16.71 0.86,71.79 0.22,93.19l-26.75 537.7c-1.79,33.15 -7.11,50.48 -6.67,92.94 0.41,39.9 -3.8,56.56 -6.29,86.68 -3.85,46.53 3.03,221.35 -20.32,265.22 -47.17,88.59 -201.87,63.75 -181.22,-81.29 4.25,-29.84 0.85,-61.1 1.75,-91.53 1.03,-34.68 7.26,-45.21 7.01,-85.97l18.8 -359.71c3.34,-29.71 -0.68,-62.06 0.94,-92.02l12.97 -179.62c3.84,-46.53 -3.04,-221.35 20.31,-265.22 40.66,-76.38 166.29,-68.96 183.87,35.88 5.64,33.67 -1.43,27.29 -4.62,43.75zm-936.32 -13.27c-7.14,-36.9 18.59,-98.25 72.73,-113.69 54.96,-15.69 104.65,18.34 118.88,61.52 9.67,29.3 20.66,329.23 20.66,357.85l33.66 623.77c0,39.74 1.43,65.35 4.86,95.28 14.37,125.38 -154.65,157.51 -190.06,50.08 -9.67,-29.3 -20.66,-329.23 -20.67,-357.86l-40.06 -716.95zm-205.86 1680.07l1354.68 0c104.12,0 170.23,-54.79 220.81,-111.22 69.25,-77.23 63.94,-160.7 71.74,-260.29l23.39 -308.64c7.22,-47.97 7.08,-107.31 9.47,-156.56 2.09,-43.51 12.34,-108.66 13.4,-152.61 2.5,-105.22 14.63,-205.42 19.79,-312.23l46.61 -617.46c2.57,-108.05 19.79,-210.13 19.79,-318.88l-2204.68 0 131.83 1860.35c6.03,55.17 1.82,104.79 13.91,152.11 29.97,117.3 144.46,225.43 279.26,225.43z"/>
    <path class="fil0" d="M1265.64 201.02c152.98,0 259.06,-16.28 374.69,63.6 40.38,27.87 112,112.1 116.72,168.83l-823.44 0c4.65,-55.86 75.48,-139.44 112.78,-166.13 57.9,-41.45 119.86,-66.3 219.25,-66.3zm-51.8 -199.22l258.94 0c93.06,6.41 181.51,27.36 269.79,87.52 115.77,78.89 192.39,195.65 226.98,344.13 194.33,0 304.93,-4.71 467.52,103.57 91.67,61.04 243.02,222.57 243.02,321.42 0,64.46 -40.56,106.25 -86.33,106.25l-2496.86 0c-40.72,0 -86.33,-45.61 -86.33,-86.33 0,-80.11 51.33,-151.09 97.5,-207.96 89.55,-110.29 206.15,-188.42 349.02,-222.07 82.5,-19.43 164.93,-14.88 264.02,-14.88 7.74,-33.19 16.1,-61.12 27.48,-92.06 27.92,-75.93 81.37,-150.78 140.12,-205.2 35.54,-32.93 96.09,-73.37 140.61,-91.8 54,-22.37 110.12,-42.58 183.2,-42.58l1.32 -0.01z"/>
   </g>
  </g>
 </g>
</svg>
