<?xml version="1.0" encoding="UTF-8"?>
<!DOCTYPE svg PUBLIC "-//W3C//DTD SVG 1.1//EN" "http://www.w3.org/Graphics/SVG/1.1/DTD/svg11.dtd">
<!-- Creator: CorelDRAW 2020 (64-Bit) -->
<svg xmlns="http://www.w3.org/2000/svg" xml:space="preserve" width="34mm" height="34mm" version="1.1" style="shape-rendering:geometricPrecision; text-rendering:geometricPrecision; image-rendering:optimizeQuality; fill-rule:evenodd; clip-rule:evenodd"
viewBox="0 0 3400 3400"
 xmlns:xlink="http://www.w3.org/1999/xlink"
 xmlns:xodm="http://www.corel.com/coreldraw/odm/2003">
 <defs>
  <style type="text/css">
   <![CDATA[
    .fil0 {fill:#2B2A29}
   ]]>
  </style>
 </defs>
 <g id="Слой_x0020_1">
  <metadata id="CorelCorpID_0Corel-Layer"/>
  <g id="_2500871825184">
  </g>
  <g id="_2500871824656">
  </g>
  <path class="fil0" d="M1797.8 3182.66l0 -484.76 411.73 0c-22.32,95.79 -176.95,331.21 -268.33,402.37 -33.33,25.95 -100.39,72.38 -143.4,82.39zm-162.08 -3180.85l125.83 0c121.57,4.29 242.33,21.04 357.76,50.37 112.38,28.54 207.15,66.63 302.63,109.09 126.98,56.46 329.69,191.95 426.74,290.45 9.72,9.87 16.23,17.42 26.88,26.24 55.76,46.19 25.09,26.45 76.06,76.67 195.57,192.68 322.88,470.16 397.33,731.57 28.91,101.48 45.38,227.47 49.25,356.75l0 119.43c-3.93,130.64 -20.79,257.99 -50.75,360.16 -64.97,221.55 -127.07,372.09 -261.38,562.06l-240.7 270.63c-61.3,62.22 -158.95,130.52 -232.08,179.64 -23.33,15.67 -37.06,22.49 -62.29,37.32 -45.25,26.58 -83.59,50.77 -133.7,72.16 -135.8,57.98 -159.43,67.03 -303.5,108.21 -165.26,47.24 -304,49.24 -475.37,49.24 -320.99,0 -663.26,-128.47 -923.03,-312.13 -108.94,-77.01 -127.22,-108.28 -194.61,-163.97 -48.84,-40.37 -18.33,-17.9 -49.32,-50.29l-73.36 -79.38c-32.17,-36.91 -61.98,-74.05 -90.52,-115.34 -50.94,-73.72 -116.81,-177.51 -151.94,-259.78 -127.37,-298.35 -157.45,-448.47 -157.45,-778.87 0,-234.51 70.33,-463.56 159.46,-663.98 19.96,-44.89 46.25,-91.81 71.64,-134.22 26.06,-43.52 52.89,-85.04 81.03,-124.83 61.32,-86.74 134.11,-174.11 214.08,-244.12 10.26,-8.98 16.82,-16.58 26.61,-26.51 178.28,-180.95 485.59,-336.27 731.39,-397.52 114.11,-28.43 233.33,-44.81 353.31,-49.05zm-448.85 2696.09l411.72 0 0 484.76c-89.38,-20.82 -192.84,-122.92 -249.55,-195.38 -42.21,-53.93 -98.77,-147.44 -129.11,-209.54l-33.06 -79.84zm1022.66 411.72l62.5 -90.23c45.29,-69.15 139.81,-249.27 156.64,-321.49l385.15 0c-10.43,15.59 -15.65,17.59 -28.1,31.65l-63.34 62.85c-129.34,127.92 -254.43,200.94 -417.66,279.6 -23.26,11.21 -71.89,32.19 -95.19,37.62zm-1626.96 -411.72l385.16 0c9.46,40.59 73.31,176.4 95.15,216.96 18.43,34.25 38.35,68.58 58.86,100.51l65.13 94.25c-22.2,-5.17 -68.07,-24.78 -90.75,-35.43 -30.24,-14.21 -58.06,-23.7 -85.76,-40.41 -54.79,-33.05 -107.08,-57.8 -157.47,-94.87 -26.46,-19.47 -47.58,-32.9 -72.64,-53.54 -62.36,-51.33 -154.6,-123.13 -197.68,-187.47zm1686.72 -199.22l-471.49 0 0 -697.27 591.02 0c0,171.97 -26.45,387.97 -66.33,551.26l-29.81 116.27c-5.3,18.01 -2.2,29.74 -23.39,29.74zm-1261.72 -664.06l0 -33.21 591.02 0 0 697.27 -471.49 0c-20.11,0 -16.31,-7.6 -22.03,-24.45 -50.91,-149.76 -97.5,-491.58 -97.5,-639.61zm1958.99 664.06l-471.49 0c12.22,-52.45 27.16,-109.36 38.23,-160.99 12.29,-57.37 20.25,-109.16 30.17,-169.04 12.08,-72.9 31.21,-284.6 31.21,-367.24l597.66 0c0,115.46 -40.89,277.94 -75.54,382.67 -21.04,63.55 -42.59,106.81 -66.71,165.71l-83.53 148.89zm-2762.51 -697.27l597.67 0c0,82.64 19.12,294.34 31.2,367.24 9.92,59.88 17.88,111.67 30.18,169.04 11.06,51.63 26,108.54 38.22,160.99l-471.48 0c-118.76,-177.33 -225.79,-490.43 -225.79,-697.27zm1593.75 -896.48l471.49 0c20.11,0 16.31,7.6 22.03,24.45 58.15,171.04 97.5,501.67 97.5,672.82l-591.02 0 0 -697.27zm-790.23 664.06c0,-176.88 43.93,-457.06 96.14,-634.32 5.3,-18.01 2.21,-29.74 23.39,-29.74l471.49 0 0 697.27 -591.02 0 0 -33.21zm1487.5 -664.06l471.49 0c118.68,177.24 225.78,490.64 225.78,697.27l-597.66 0c0,-145.96 -31.57,-397.12 -61.38,-536.28l-38.23 -160.99zm-1693.35 697.27l-597.67 0c0,-190.51 73.09,-379.48 142.25,-548.38l83.54 -148.89 471.48 0c-52.82,226.71 -99.6,457.15 -99.6,697.27zm996.08 -1381.25c133.92,31.19 274.08,212.59 338.68,332.03 13.62,25.19 26.76,46.03 39.95,72.94 8.57,17.5 28.67,60.81 33.1,79.79l-411.73 0 0 -484.76zm-199.21 0l0 484.76 -411.72 0c4.18,-17.98 21.77,-56.22 30.88,-75.37 67.32,-141.59 223.52,-372.75 380.84,-409.39zm610.94 73.04c119.94,27.94 377.27,188.61 476.54,280.49 11.55,10.68 18.42,18.94 29.67,30.09 15.76,15.61 20.26,16.64 36.42,30 15.89,13.12 18.74,18.98 31.3,35.11 12.71,16.32 19.91,20.42 30.36,36.03l-385.15 0c-7.5,-32.16 -30.07,-76.51 -43.63,-109.1 -41.5,-99.64 -84.19,-168.42 -142.29,-256.16 -10.95,-16.55 -22.86,-30.98 -33.22,-46.46zm-1241.8 411.72l-385.16 0c10.14,-15.15 15.12,-17.9 28.3,-31.47 15.22,-15.66 16.56,-23.15 29.91,-36.49 50.28,-50.29 151.19,-128.07 208.36,-170.16 67.33,-49.6 259.68,-155.42 337.73,-173.6 -69.9,104.39 -121,169.3 -173.61,297.87 -12.47,30.47 -37.77,80.53 -45.53,113.85z"/>
 </g>
</svg>
