<?xml version="1.0" encoding="UTF-8"?>
<!DOCTYPE svg PUBLIC "-//W3C//DTD SVG 1.1//EN" "http://www.w3.org/Graphics/SVG/1.1/DTD/svg11.dtd">
<!-- Creator: CorelDRAW 2020 (64-Bit) -->
<svg xmlns="http://www.w3.org/2000/svg" xml:space="preserve" width="40mm" height="34mm" version="1.1" style="shape-rendering:geometricPrecision; text-rendering:geometricPrecision; image-rendering:optimizeQuality; fill-rule:evenodd; clip-rule:evenodd"
viewBox="0 0 4000 3400"
 xmlns:xlink="http://www.w3.org/1999/xlink"
 xmlns:xodm="http://www.corel.com/coreldraw/odm/2003">
 <defs>
  <style type="text/css">
   <![CDATA[
    .fil0 {fill:#2B2A29}
   ]]>
  </style>
 </defs>
 <g id="Слой_x0020_1">
  <metadata id="CorelCorpID_0Corel-Layer"/>
  <path class="fil0" d="M308.52 1045.72c0,-226.98 46.97,-411.06 198.29,-564.23 65.08,-65.87 134.41,-96.72 227.46,-134.55 95.31,-38.75 339.62,-71.17 470.45,-35.67 215.89,58.58 361.31,172.39 519.18,312.68 46.72,41.51 98.25,81.11 140.49,136.79 71.32,94.03 190.66,93.36 258.65,4.46 28.9,-37.78 57.19,-62.03 89.82,-95.04l200.8 -168.91c111.15,-90.83 332.32,-214.5 516.16,-204.36 129.87,7.17 216.07,6.31 315.69,45.53 202.34,79.63 301.71,162.53 380.63,358.8 90.41,224.89 69.23,489.36 -38.88,704.06 -51.4,102.05 -164.31,259.02 -242.14,335.52l-111.56 119.52c-23.64,23.9 -38.96,31.65 -61.85,53.69l-173.2 173.4c-24.61,21.66 -37.22,29.38 -61.58,53.96l-350.29 342.92c-22.91,22.67 -38.48,30.14 -61.89,53.66l-529.42 510.39 -525.62 -506.5c-23.63,-23.91 -38.95,-31.66 -61.84,-53.69l-173.21 -173.41c-24.6,-21.66 -37.21,-29.38 -61.57,-53.95l-578.51 -576.85c-144.39,-178.92 -286.06,-379.7 -286.06,-638.22zm3658.62 -99.15l0 150.66c-5.24,78.79 -18.9,154.42 -41.4,222.89 -114.83,349.43 -284.75,533.15 -545.91,794.3l-308.03 292.75c-60.33,53.13 -117.36,120.47 -207.97,200.26 -11.99,10.57 -19.35,19.16 -30.87,30.75 -46.3,46.57 -87.38,89.47 -134.63,134.96 -17.08,16.43 -21.36,16.81 -38.32,30.99l-235.31 226.84c-45.26,45.8 -85.61,85.3 -130.84,131.04 -26.57,26.88 -46.73,38.46 -73.3,65.34 -180.03,182.08 -211.07,239.51 -388.91,61.69l-138.75 -130.83c-46.76,-47 -87.98,-87.95 -134.67,-134.91 -12.64,-12.72 -21.34,-22.87 -35.01,-34.31 -89.18,-74.54 -297.45,-282.73 -377.08,-362.36l-477.47 -462.21c-25.63,-25.91 -44.23,-36.04 -69.5,-61.43 -177.61,-178.51 -292.57,-294.07 -422,-517.7 -18.83,-32.52 -25.42,-50.78 -43.24,-87.7 -87.22,-180.71 -110.4,-319.22 -110.4,-521.19 0,-117.88 32.75,-276.86 66.92,-364.41l69.13 -146.54c114.08,-226.15 382.98,-380.83 632.21,-430.72 509.49,-101.98 763.89,89.49 1091.3,345.31 41.84,32.7 66.11,71.3 112.24,95.71 43.97,-23.27 75.9,-66.19 116.62,-99.05 330.22,-266.5 599.25,-440.41 1093.38,-340.71 236.9,47.8 412.27,155.68 543.9,311.06 128.63,151.82 203.75,378.3 217.91,599.52z"/>
 </g>
</svg>
