<?xml version="1.0" encoding="UTF-8"?>
<!DOCTYPE svg PUBLIC "-//W3C//DTD SVG 1.1//EN" "http://www.w3.org/Graphics/SVG/1.1/DTD/svg11.dtd">
<!-- Creator: CorelDRAW 2020 (64-Bit) -->
<svg xmlns="http://www.w3.org/2000/svg" xml:space="preserve" width="28mm" height="34mm" version="1.1" style="shape-rendering:geometricPrecision; text-rendering:geometricPrecision; image-rendering:optimizeQuality; fill-rule:evenodd; clip-rule:evenodd"
viewBox="0 0 2800 3400"
 xmlns:xlink="http://www.w3.org/1999/xlink"
 xmlns:xodm="http://www.corel.com/coreldraw/odm/2003">
 <defs>
  <style type="text/css">
   <![CDATA[
    .fil0 {fill:black}
   ]]>
  </style>
 </defs>
 <g id="Слой_x0020_1">
  <metadata id="CorelCorpID_0Corel-Layer"/>
  <g id="_2501007211728">
  </g>
  <g id="_2501007211584">
  </g>
  <path class="fil0" d="M31.05 1321.64c0,257.35 39.74,360.5 134.18,579.89 93.81,217.92 220.8,393.64 354.77,584.41l331.5 405.87c19.75,23.47 24.21,31.75 46.91,53.99 24.09,23.59 29.7,32.57 50.82,57.85 31.48,37.65 70.7,68.45 104.54,105.04l100.8 108.76c36.9,36.88 65.18,69.68 107.34,102.23 44.99,34.75 60.54,82.11 135.22,82.11 73.69,0 89.09,-45.5 130.79,-78.78 54.17,-43.22 264.73,-259.8 313.51,-315.19l195.45 -223.69c72.4,-93.07 155.76,-178.2 231.1,-288.94 16,-23.52 29.77,-40 46.24,-62.43 122.76,-167.09 149.19,-229.39 242.69,-386.01 28.07,-47 47.8,-86.55 69.86,-139.71 136.16,-327.99 179.81,-517.46 95.66,-878.4 -33.57,-144.06 -122.44,-334.1 -213.11,-454.4 -80.4,-106.7 -179.75,-214.98 -287.15,-294.98 -708.92,-528.06 -1680.92,-269.76 -2059.28,498.92 -64.8,131.67 -131.84,347.53 -131.84,543.46zm659.76 38.8c0,397.72 329.1,714.08 667.51,714.08 232.38,0 380.09,-50.73 541.39,-211.51 478.53,-477 58.53,-1323.91 -654.58,-1182.38 -309.18,61.36 -554.32,357.85 -554.32,679.81z"/>
 </g>
</svg>
