<?xml version="1.0" encoding="UTF-8"?>
<!DOCTYPE svg PUBLIC "-//W3C//DTD SVG 1.1//EN" "http://www.w3.org/Graphics/SVG/1.1/DTD/svg11.dtd">
<!-- Creator: CorelDRAW 2020 (64-Bit) -->
<svg xmlns="http://www.w3.org/2000/svg" xml:space="preserve" width="34.1mm" height="34.1mm" version="1.1" style="shape-rendering:geometricPrecision; text-rendering:geometricPrecision; image-rendering:optimizeQuality; fill-rule:evenodd; clip-rule:evenodd"
viewBox="0 0 3410 3410"
 xmlns:xlink="http://www.w3.org/1999/xlink"
 xmlns:xodm="http://www.corel.com/coreldraw/odm/2003">
 <defs>
  <style type="text/css">
   <![CDATA[
    .fil0 {fill:#333333}
   ]]>
  </style>
 </defs>
 <g id="Слой_x0020_1">
  <metadata id="CorelCorpID_0Corel-Layer"/>
  <path class="fil0" d="M282.7 1456.38c-0.4,-2.06 5.96,-114.26 7.25,-131.47 7.2,-95.64 51.32,-263.22 89.73,-340.28 88.73,-177.99 63.6,-140.41 195.34,-304.05 66.58,-82.7 224.66,-207.74 320.27,-255.39 127.03,-63.32 242.94,-96.15 385.11,-121.21 176.33,-31.08 446.11,5.17 604.58,84.17l94.25 44.47c83.46,50.69 223.66,147.8 285.06,221.25 112.14,134.17 128.13,151.5 203.08,303.23 59.22,119.87 75.55,202.95 98.26,331.76 13.03,73.93 11.81,181.23 5.56,264.29 -9.59,127.26 -73.34,326.68 -134.25,434.49l-117.95 173.36c-58.41,75.09 -95.1,97.44 -141.12,143.24 -26.02,25.89 -50.9,41.98 -80.95,64.7 -120.79,91.35 -249.69,138.7 -394.76,180.91 -42.8,12.45 -77.81,15.38 -122.45,23.21 -189.54,33.21 -449.74,-14.39 -603.36,-83.33 -227.87,-102.26 -404.43,-257.6 -533.82,-471.87 -52.52,-86.99 -99.21,-208.65 -123.76,-306.25 -27.94,-111.08 -23.73,-123.82 -28.88,-220.82 -1.54,-29.04 -4.77,-21.86 -7.19,-34.41zm-284.37 -69.36c0,319.01 37.98,451.86 159.52,714.39 26.6,57.44 133.36,211.84 175.42,261.54l169.67 170.17c28.98,25.76 68.11,51.5 98.8,74.61 200.12,150.69 523.65,263.55 776.81,263.55 215.62,0 393.61,-18.75 594.54,-105.99 100.77,-43.74 188.65,-86.35 279.36,-150.65 27.66,-19.62 55.42,-43.78 83.24,-62.41 50.67,33.93 738.27,752.06 829.13,821.58 138.98,106.32 301.7,-67.16 203.53,-196.59 -71.05,-93.65 -790.42,-782.05 -824.58,-833.07l116.63 -167.73c106.61,-164.68 202.41,-470.77 202.41,-664.56 0,-264.04 -21.95,-454.66 -134.09,-677.39 -41.58,-82.55 -63.72,-137.2 -126.49,-220.31 -139.82,-185.12 -243.55,-288.23 -448.18,-411.86 -16.71,-10.09 -34.77,-22.61 -52.26,-30.96 -262.04,-125.28 -403.57,-164.55 -723.24,-164.55 -246.73,0 -576.54,112.32 -772.85,260.59l-140.99 115.63c-19.33,17.04 -29.18,22.1 -48.62,41.55 -51.31,51.31 -111.62,129.1 -154.21,185.64 -150.7,200.13 -263.55,523.66 -263.55,776.82z"/>
 </g>
</svg>
